[Header]
FileType HTR
DataType HTRS
FileVersion 1
NumSegments 64
NumFrames 3
DataFrameRate 24
EulerRotationOrder ZYX
CalibrationUnits mm
RotationUnits Degrees
GlobalAxisofGravity Y
BoneLengthAxis Y
ScaleFactor 1.0
[SegmentNames&Hierarchy]
Hips	GLOBAL
Spine	Hips
Spine1	Spine
Spine2	Spine1
Neck	Spine2
Head	Neck
LeftEye	Head
RightEye	Head
LeftShoulder	Spine2
LeftArm	LeftShoulder
LeftForeArm	LeftArm
LeftHand	LeftForeArm
LeftHandThumb1	LeftHand
LeftHandThumb2	LeftHandThumb1
LeftHandThumb3	LeftHandThumb2
LeftHandThumb4	LeftHandThumb3
LeftHandIndex1	LeftHand
LeftHandIndex2	LeftHandIndex1
LeftHandIndex3	LeftHandIndex2
LeftHandIndex4	LeftHandIndex3
LeftHandMiddle1	LeftHand
LeftHandMiddle2	LeftHandMiddle1
LeftHandMiddle3	LeftHandMiddle2
LeftHandMiddle4	LeftHandMiddle3
LeftHandRing1	LeftHand
LeftHandRing2	LeftHandRing1
LeftHandRing3	LeftHandRing2
LeftHandRing4	LeftHandRing3
LeftHandPinky1	LeftHand
LeftHandPinky2	LeftHandPinky1
LeftHandPinky3	LeftHandPinky2
LeftHandPinky4	LeftHandPinky3
RightShoulder	Spine2
RightArm	RightShoulder
RightForeArm	RightArm
RightHand	RightForeArm
RightHandPinky1	RightHand
RightHandPinky2	RightHandPinky1
RightHandPinky3	RightHandPinky2
RightHandPinky4	RightHandPinky3
RightHandRing1	RightHand
RightHandRing2	RightHandRing1
RightHandRing3	RightHandRing2
RightHandRing4	RightHandRing3
RightHandMiddle1	RightHand
RightHandMiddle2	RightHandMiddle1
RightHandMiddle3	RightHandMiddle2
RightHandMiddle4	RightHandMiddle3
RightHandIndex1	RightHand
RightHandIndex2	RightHandIndex1
RightHandIndex3	RightHandIndex2
RightHandIndex4	RightHandIndex3
RightHandThumb1	RightHand
RightHandThumb2	RightHandThumb1
RightHandThumb3	RightHandThumb2
RightHandThumb4	RightHandThumb3
LeftUpLeg	Hips
LeftLeg	LeftUpLeg
LeftFoot	LeftLeg
LeftToeBase	LeftFoot
RightUpLeg	Hips
RightLeg	RightUpLeg
RightFoot	RightLeg
RightToeBase	RightFoot
[BasePosition]
Hips	0	0	0	0	0	0	1
Spine	0	0	0	0	0	0	1
Spine1	0	0	0	0	0	0	1
Spine2	0	0	0	0	0	0	1
Neck	0	0	0	0	0	0	1
Head	0	0	0	0	0	0	1
LeftEye	0	0	0	0	0	0	1
RightEye	0	0	0	0	0	0	1
LeftShoulder	0	0	0	0	0	0	1
LeftArm	0	0	0	0	0	0	1
LeftForeArm	0	0	0	0	0	0	1
LeftHand	0	0	0	0	0	0	1
LeftHandThumb1	0	0	0	0	0	0	1
LeftHandThumb2	0	0	0	0	0	0	1
LeftHandThumb3	0	0	0	0	0	0	1
LeftHandThumb4	0	0	0	0	0	0	1
LeftHandIndex1	0	0	0	0	0	0	1
LeftHandIndex2	0	0	0	0	0	0	1
LeftHandIndex3	0	0	0	0	0	0	1
LeftHandIndex4	0	0	0	0	0	0	1
LeftHandMiddle1	0	0	0	0	0	0	1
LeftHandMiddle2	0	0	0	0	0	0	1
LeftHandMiddle3	0	0	0	0	0	0	1
LeftHandMiddle4	0	0	0	0	0	0	1
LeftHandRing1	0	0	0	0	0	0	1
LeftHandRing2	0	0	0	0	0	0	1
LeftHandRing3	0	0	0	0	0	0	1
LeftHandRing4	0	0	0	0	0	0	1
LeftHandPinky1	0	0	0	0	0	0	1
LeftHandPinky2	0	0	0	0	0	0	1
LeftHandPinky3	0	0	0	0	0	0	1
LeftHandPinky4	0	0	0	0	0	0	1
RightShoulder	0	0	0	0	0	0	1
RightArm	0	0	0	0	0	0	1
RightForeArm	0	0	0	0	0	0	1
RightHand	0	0	0	0	0	0	1
RightHandPinky1	0	0	0	0	0	0	1
RightHandPinky2	0	0	0	0	0	0	1
RightHandPinky3	0	0	0	0	0	0	1
RightHandPinky4	0	0	0	0	0	0	1
RightHandRing1	0	0	0	0	0	0	1
RightHandRing2	0	0	0	0	0	0	1
RightHandRing3	0	0	0	0	0	0	1
RightHandRing4	0	0	0	0	0	0	1
RightHandMiddle1	0	0	0	0	0	0	1
RightHandMiddle2	0	0	0	0	0	0	1
RightHandMiddle3	0	0	0	0	0	0	1
RightHandMiddle4	0	0	0	0	0	0	1
RightHandIndex1	0	0	0	0	0	0	1
RightHandIndex2	0	0	0	0	0	0	1
RightHandIndex3	0	0	0	0	0	0	1
RightHandIndex4	0	0	0	0	0	0	1
RightHandThumb1	0	0	0	0	0	0	1
RightHandThumb2	0	0	0	0	0	0	1
RightHandThumb3	0	0	0	0	0	0	1
RightHandThumb4	0	0	0	0	0	0	1
LeftUpLeg	0	0	0	0	0	0	1
LeftLeg	0	0	0	0	0	0	1
LeftFoot	0	0	0	0	0	0	1
LeftToeBase	0	0	0	0	0	0	1
RightUpLeg	0	0	0	0	0	0	1
RightLeg	0	0	0	0	0	0	1
RightFoot	0	0	0	0	0	0	1
RightToeBase	0	0	0	0	0	0	1
[Hips]
15	81.39313507	1024.76416	-83.70838928	-3.18377614	-60.84080124	-2.916510105	1.0
16	72.79364777	1029.401855	-79.15154266	-3.518516779	-69.70527649	-2.328029633	1.0
17	61.93939972	1031.915894	-70.5168457	-2.078581095	-75.05840302	-3.429708004	1.0
[Spine]
15	0	101.8159943	1.315000057	3.61887002	0.7202844024	1.700335741	1.0
16	0	101.8159943	1.315000057	3.871543169	0.9353278875	1.639671326	1.0
17	0	101.8159943	1.315000057	4.056507111	1.059251785	1.869218826	1.0
[Spine1]
15	0	100.8349991	-10.00800037	1.390215993	-0.5373979211	-3.543971062	1.0
16	0	100.8349991	-10.00800037	1.58699429	-0.3637726903	-3.471334219	1.0
17	0	100.8349991	-10.00800037	1.709335923	-0.01723585837	-3.163996935	1.0
[Spine2]
15	0	91	-13.73399925	1.313489914	-0.1660861373	0.5769580603	1.0
16	0	91	-13.73399925	1.524230242	-0.0435160622	0.3373400867	1.0
17	0	91	-13.73399925	1.673399329	0.2303438038	0.112826094	1.0
[Neck]
15	0	166.7169952	-25.16200066	7.106297493	-5.421226025	1.423946619	1.0
16	0	166.7169952	-25.16200066	6.722122669	-4.378786087	1.026102066	1.0
17	0	166.7169952	-25.16200066	6.283933163	-3.37452817	0.606773138	1.0
[Head]
15	0	96.17900085	16.84999847	-3.818690062	-18.37310219	9.037236214	1.0
16	0	96.17900085	16.84999847	-3.853423119	-15.68075371	7.538330555	1.0
17	0	96.17900085	16.84999847	-4.441272736	-12.90344906	6.083562851	1.0
[LeftEye]
15	30.6760006	64.09500122	92.83599854	0	0	0	1.0
16	30.6760006	64.09500122	92.83599854	0	0	0	1.0
17	30.6760006	64.09500122	92.83599854	0	0	0	1.0
[RightEye]
15	-30.6760006	64.09500122	92.83499908	0	0	0	1.0
16	-30.6760006	64.09500122	92.83499908	0	0	0	1.0
17	-30.6760006	64.09500122	92.83499908	0	0	0	1.0
[LeftShoulder]
15	45.70400238	109.4599991	-26.28000069	4.66591692	-17.15273094	-13.31458664	1.0
16	45.70400238	109.4599991	-26.28000069	4.737226009	-16.25837326	-13.54005909	1.0
17	45.70400238	109.4599991	-26.28000069	4.794639111	-16.18349457	-13.92101955	1.0
[LeftArm]
15	105.923996	-5.24600029	-22.32099915	12.97250366	3.978992939	-58.04499817	1.0
16	105.923996	-5.24600029	-22.32099915	13.72378635	2.302010059	-58.55999374	1.0
17	105.923996	-5.24600029	-22.32099915	14.9715662	0.8534482718	-59.42576599	1.0
[LeftForeArm]
15	278.414978	-0.0009999999311	0	-4.237747362e-06	-8.386597633	-0.000219180627	1.0
16	278.414978	-0.0009999999311	0	-1.300974986e-06	-7.3055439	-0.0002173855901	1.0
17	278.414978	-0.0009999999311	0	-5.730680641e-06	-6.643973827	-0.0002130923385	1.0
[LeftHand]
15	283.2879944	0	0	-28.81318474	8.429458618	0.8494080305	1.0
16	283.2879944	0	0	-29.45209122	7.28305912	-0.6650311947	1.0
17	283.2879944	0	0	-29.81944847	5.126224041	-1.692379713	1.0
[LeftHandThumb1]
15	24.6609993	-15.75	26.8239994	-0.4889863729	2.201392412	4.818544865	1.0
16	24.6609993	-15.75	26.8239994	-0.4889863729	2.201392412	4.818544865	1.0
17	24.6609993	-15.75	26.8239994	-0.4889863729	2.201392412	4.818544865	1.0
[LeftHandThumb2]
15	32.29800034	-18.64699936	18.64699936	20.28997803	18.89910316	22.90550423	1.0
16	32.29800034	-18.64699936	18.64699936	20.38072968	18.7467041	22.85391045	1.0
17	32.29800034	-18.64699936	18.64699936	20.53306198	19.03892899	22.89928246	1.0
[LeftHandThumb3]
15	26.52600098	-15.31499958	15.31499958	-13.15647221	5.523425102	7.98028183	1.0
16	26.52600098	-15.31499958	15.31499958	-13.16250515	5.511691093	7.978233814	1.0
17	26.52600098	-15.31499958	15.31499958	-13.16471195	5.508356094	7.979088306	1.0
[LeftHandThumb4]
15	19.54599953	-11.28499985	11.28499985	0	0	0	1.0
16	19.54599953	-11.28499985	11.28499985	0	0	0	1.0
17	19.54599953	-11.28499985	11.28499985	0	0	0	1.0
[LeftHandIndex1]
15	91.09299469	-5.170999527	22.60099792	0.1679919213	-0.8720767498	-7.865101814	1.0
16	91.09299469	-5.170999527	22.60099792	0.1428505331	-0.8621296287	-8.147469521	1.0
17	91.09299469	-5.170999527	22.60099792	0.1178199798	-0.8598368168	-8.390378952	1.0
[LeftHandIndex2]
15	36.76399994	0	0	-0.2677731812	1.748588681	-17.41141891	1.0
16	36.76399994	0	0	-0.2689232528	1.752254367	-17.44921684	1.0
17	36.76399994	0	0	-0.2659515142	1.742762327	-17.35188293	1.0
[LeftHandIndex3]
15	28.83100128	0	0	-0.05792610347	0.8208687901	-8.073307991	1.0
16	28.83100128	0	0	-0.05848098919	0.8246864676	-8.111050606	1.0
17	28.83100128	0	0	-0.05707578734	0.8148433566	-8.013792038	1.0
[LeftHandIndex4]
15	23.92700005	0	0	0	0	0	1.0
16	23.92700005	0	0	0	0	0	1.0
17	23.92700005	0	0	0	0	0	1.0
[LeftHandMiddle1]
15	95.33399963	0	0	-0.7805188894	2.723464966	-15.50734615	1.0
16	95.33399963	0	0	-0.7880378366	2.708084345	-15.61953449	1.0
17	95.33399963	0	0	-0.7977890372	2.715283155	-15.76440525	1.0
[LeftHandMiddle2]
15	36.98199844	0	0	-0.26798141	1.749225974	-17.41808891	1.0
16	36.98199844	0	0	-0.2671997249	1.746754289	-17.39259148	1.0
17	36.98199844	0	0	-0.2678805292	1.748944283	-17.4151535	1.0
[LeftHandMiddle3]
15	29.50900078	0	0	-0.2995576859	1.846845508	-18.42481232	1.0
16	29.50900078	0	0	-0.2987320125	1.84439373	-18.39942932	1.0
17	29.50900078	0	0	-0.2994606197	1.846588731	-18.42199135	1.0
[LeftHandMiddle4]
15	28.3390007	0	0	0	0	0	1.0
16	28.3390007	0	0	0	0	0	1.0
17	28.3390007	0	0	0	0	0	1.0
[LeftHandRing1]
15	91.04499817	-0.4390000105	-18.65100098	-1.217212915	3.349811554	-21.59404564	1.0
16	91.04499817	-0.4390000105	-18.65100098	-1.225034714	3.327255487	-21.69712257	1.0
17	91.04499817	-0.4390000105	-18.65100098	-1.235142946	3.296811581	-21.83041382	1.0
[LeftHandRing2]
15	31.54000092	0	0	-0.3852905929	2.086500168	-20.92258453	1.0
16	31.54000092	0	0	-0.38384372	2.082730293	-20.88314247	1.0
17	31.54000092	0	0	-0.3853461146	2.086628675	-20.92399406	1.0
[LeftHandRing3]
15	29.37700081	0	0	-0.2821217179	1.793657184	-17.8757019	1.0
16	29.37700081	0	0	-0.2808892727	1.789850116	-17.83631897	1.0
17	29.37700081	0	0	-0.2821546793	1.793812394	-17.8772316	1.0
[LeftHandRing4]
15	26.47500038	0	0	0	0	0	1.0
16	26.47500038	0	0	0	0	0	1.0
17	26.47500038	0	0	0	0	0	1.0
[LeftHandPinky1]
15	80.77799988	-4.887000084	-38.06099701	-1.734875083	5.310450554	-27.36200523	1.0
16	80.77799988	-4.887000084	-38.06099701	-1.757028222	5.229852676	-27.44165993	1.0
17	80.77799988	-4.887000084	-38.06099701	-1.774367452	5.175288677	-27.52429771	1.0
[LeftHandPinky2]
15	36	0	0	-0.270768255	1.758089185	-17.50942039	1.0
16	36	0	0	-0.2684161067	1.750657439	-17.4328289	1.0
17	36	0	0	-0.2681705058	1.749885559	-17.4249649	1.0
[LeftHandPinky3]
15	21.14200211	0	0	-0.2438147813	1.670268178	-16.60815048	1.0
16	21.14200211	0	0	-0.2415309697	1.662626386	-16.5299778	1.0
17	21.14200211	0	0	-0.2412598431	1.661725879	-16.52072525	1.0
[LeftHandPinky4]
15	19.75699997	0	0	0	0	0	1.0
16	19.75699997	0	0	0	0	0	1.0
17	19.75699997	0	0	0	0	0	1.0
[RightShoulder]
15	-45.70000076	109.4620056	-26.28000069	4.689198971	14.82919884	14.53968716	1.0
16	-45.70000076	109.4620056	-26.28000069	4.809714794	14.29444981	14.64656353	1.0
17	-45.70000076	109.4620056	-26.28000069	4.901610374	13.41515923	14.59669399	1.0
[RightArm]
15	-105.9280014	-5.248000145	-22.32099915	-22.56079674	-8.753557205	69.78694916	1.0
16	-105.9280014	-5.248000145	-22.32099915	-15.86135483	-6.414458752	68.81981659	1.0
17	-105.9280014	-5.248000145	-22.32099915	-7.395898819	-4.280472279	67.85614014	1.0
[RightForeArm]
15	-278.414978	0	0	2.183901597e-05	15.78841209	4.902855153e-07	1.0
16	-278.414978	0	0	-7.855491049e-07	12.93955803	4.624784651e-06	1.0
17	-278.414978	0	0	1.929606697e-06	10.70103645	2.341849495e-06	1.0
[RightHand]
15	-283.2879944	0	0.0009999999311	23.39675713	12.62762451	0.06339646876	1.0
16	-283.2879944	0	0.0009999999311	14.14234638	10.45082569	-4.055980206	1.0
17	-283.2879944	0	0.0009999999311	4.308538914	7.744395733	-6.574128151	1.0
[RightHandPinky1]
15	-80.76699829	-4.885000229	-38.06000137	-1.443331122	-5.290265083	26.32273865	1.0
16	-80.76699829	-4.885000229	-38.06000137	-1.427277446	-5.233464241	26.08744431	1.0
17	-80.76699829	-4.885000229	-38.06000137	-1.424301267	-5.157430172	26.02050972	1.0
[RightHandPinky2]
15	-36	0	0.0009999999311	-0.2111323029	-1.383631706	17.37019348	1.0
16	-36	0	0.0009999999311	-0.2110178471	-1.383282304	17.36541939	1.0
17	-36	0	0.0009999999311	-0.2118877172	-1.386060238	17.40159798	1.0
[RightHandPinky3]
15	-21.14200211	0	0	-0.1904518157	-1.315674782	16.47283173	1.0
16	-21.14200211	0	0	-0.1903344244	-1.315252781	16.46758842	1.0
17	-21.14200211	0	0	-0.1911495924	-1.318035126	16.50327492	1.0
[RightHandPinky4]
15	-19.75699997	0	0	0	0	0	1.0
16	-19.75699997	0	0	0	0	0	1.0
17	-19.75699997	0	0	0	0	0	1.0
[RightHandRing1]
15	-91.03599548	-0.4390000105	-18.65100098	-1.053303123	-2.798337936	20.60235977	1.0
16	-91.03599548	-0.4390000105	-18.65100098	-1.040775061	-2.674100399	20.41327286	1.0
17	-91.03599548	-0.4390000105	-18.65100098	-1.030790687	-2.672166109	20.26152802	1.0
[RightHandRing2]
15	-31.54000092	0	0	-0.304669261	-1.653443098	20.87900162	1.0
16	-31.54000092	0	0	-0.3036357462	-1.650749683	20.84344673	1.0
17	-31.54000092	0	0	-0.3042857051	-1.652446151	20.86590004	1.0
[RightHandRing3]
15	-29.37700081	0	0	-0.2228135318	-1.420489907	17.8280735	1.0
16	-29.37700081	0	0	-0.2219444811	-1.417783976	17.79317856	1.0
17	-29.37700081	0	0	-0.2225071043	-1.419531345	17.81557274	1.0
[RightHandRing4]
15	-26.47500038	0	0	0	0	0	1.0
16	-26.47500038	0	0	0	0	0	1.0
17	-26.47500038	0	0	0	0	0	1.0
[RightHandMiddle1]
15	-95.32500458	0	0	-0.7042076588	-2.466908216	15.04841614	1.0
16	-95.32500458	0	0	-0.6843816638	-2.39884305	14.71582508	1.0
17	-95.32500458	0	0	-0.6765044928	-2.335847855	14.58388519	1.0
[RightHandMiddle2]
15	-36.98199844	0	0	-0.2124728411	-1.387965798	17.40641212	1.0
16	-36.98199844	0	0	-0.2120662183	-1.386636376	17.38926506	1.0
17	-36.98199844	0	0	-0.2113826722	-1.384464383	17.36132622	1.0
[RightHandMiddle3]
15	-29.50900078	0	0	-0.2375732809	-1.467607141	18.41419029	1.0
16	-29.50900078	0	0	-0.2371349186	-1.466297507	18.39720535	1.0
17	-29.50900078	0	0	-0.236427024	-1.46416378	18.3693924	1.0
[RightHandMiddle4]
15	-28.3390007	0	0.0009999999311	0	0	0	1.0
16	-28.3390007	0	0.0009999999311	0	0	0	1.0
17	-28.3390007	0	0.0009999999311	0	0	0	1.0
[RightHandIndex1]
15	-91.08300018	-5.167999744	22.60099792	0.2140951306	1.198389173	6.795198917	1.0
16	-91.08300018	-5.167999744	22.60099792	0.1735131443	1.328548312	6.546771049	1.0
17	-91.08300018	-5.167999744	22.60099792	0.1543533206	1.384296179	6.461081028	1.0
[RightHandIndex2]
15	-36.76399994	0	0	-0.2127670348	-1.388867617	17.41830254	1.0
16	-36.76399994	0	0	-0.212511763	-1.388074279	17.40795326	1.0
17	-36.76399994	0	0	-0.2127282917	-1.388787627	17.41722679	1.0
[RightHandIndex3]
15	-28.83100128	0	0	-0.04589200392	-0.6509753466	8.064193726	1.0
16	-28.83100128	0	0	-0.04576873034	-0.6501343846	8.053833961	1.0
17	-28.83100128	0	0	-0.04588009045	-0.6508873701	8.063092232	1.0
[RightHandIndex4]
15	-23.92700005	0	0	0	0	0	1.0
16	-23.92700005	0	0	0	0	0	1.0
17	-23.92700005	0	0	0	0	0	1.0
[RightHandThumb1]
15	-24.64799881	-15.72700024	26.82600021	-1.658462644	-0.289145112	-4.221315384	1.0
16	-24.64799881	-15.72700024	26.82600021	-1.658462644	-0.289145112	-4.221315384	1.0
17	-24.64799881	-15.72700024	26.82600021	-1.658462644	-0.289145112	-4.221315384	1.0
[RightHandThumb2]
15	-32.29800034	-18.64699936	18.64699936	21.99629402	-21.67398643	-23.26334381	1.0
16	-32.29800034	-18.64699936	18.64699936	21.03697395	-21.18149757	-22.73893738	1.0
17	-32.29800034	-18.64699936	18.64699936	20.82545853	-21.25942039	-22.70881653	1.0
[RightHandThumb3]
15	-26.52600098	-15.31399918	15.31399918	-14.46408558	-6.70619154	-11.14417839	1.0
16	-26.52600098	-15.31399918	15.31399918	-14.38467121	-7.075184345	-11.02639484	1.0
17	-26.52600098	-15.31399918	15.31399918	-14.3655138	-7.17183876	-11.01114273	1.0
[RightHandThumb4]
15	-19.54599953	-11.28499985	11.28499985	0	0	0	1.0
16	-19.54599953	-11.28499985	11.28499985	0	0	0	1.0
17	-19.54599953	-11.28499985	11.28499985	0	0	0	1.0
[LeftUpLeg]
15	82.07800293	-67.51699829	-15.99599934	-18.97373199	25.65990829	8.941160202	1.0
16	82.07800293	-67.51699829	-15.99599934	-16.07047462	20.23299408	9.151311874	1.0
17	82.07800293	-67.51699829	-15.99599934	-14.51807404	14.72860622	9.463247299	1.0
[LeftLeg]
15	0	-443.7049866	2.845999956	40.19792175	-6.51514864	-7.386765957	1.0
16	0	-443.7049866	2.845999956	32.98391342	-6.955047131	-6.750687599	1.0
17	0	-443.7049866	2.845999956	25.56294441	-6.106112003	-4.932197571	1.0
[LeftFoot]
15	0	-444.2789917	-29.8219986	9.231848717	10.12194347	3.08292675	1.0
16	0	-444.2789917	-29.8219986	9.139263153	15.99680519	0.8682712913	1.0
17	0	-444.2789917	-29.8219986	6.26688385	16.42735672	-1.326459765	1.0
[LeftToeBase]
15	0	-87.28699493	107.1060028	-10.95267582	-0.5431416035	-6.0795331	1.0
16	0	-87.28699493	107.1060028	-10.13891125	-0.5220786333	-5.761753559	1.0
17	0	-87.28699493	107.1060028	-6.921230793	1.832795897e-05	-4.927469035e-06	1.0
[RightUpLeg]
15	-82.07800293	-67.51699829	-15.99599934	-5.375691891	-26.82151985	0.729993999	1.0
16	-82.07800293	-67.51699829	-15.99599934	-4.52481699	-25.09103203	1.237159133	1.0
17	-82.07800293	-67.51699829	-15.99599934	-3.940579891	-22.6586895	1.983371854	1.0
[RightLeg]
15	0	-443.7049866	2.861999989	17.11521721	2.593101978	6.728433132	1.0
16	0	-443.7049866	2.861999989	15.08901691	6.131428719	6.075910568	1.0
17	0	-443.7049866	2.861999989	13.62511253	5.376250267	4.232267857	1.0
[RightFoot]
15	0	-444.2770081	-29.83799934	-5.923786163	-28.59653854	-6.230268955	1.0
16	0	-444.2770081	-29.83799934	-4.313694	-26.09915924	-6.615447521	1.0
17	0	-444.2770081	-29.83799934	-4.022542953	-23.22654724	-5.474313736	1.0
[RightToeBase]
15	0	-87.28699493	107.1060028	-9.113846779	-4.429580258e-06	-2.808883664e-06	1.0
16	0	-87.28699493	107.1060028	-9.472307205	3.149515123e-06	1.028973543e-06	1.0
17	0	-87.28699493	107.1060028	-9.359212875	1.40729685e-06	7.289172572e-07	1.0
[EndOfFile]
